<svg id="Calque_1" data-name="Calque 1" xmlns="http://www.w3.org/2000/svg" viewBox="0 0 1920 621.49"><defs><style>.cls-1{fill:#372f84;stroke:#372f84;stroke-miterlimit:10;stroke-width:7.8px;}.cls-2{fill:#e9a93e;}</style></defs><g id="_02._Logo_et_déclinaisons" data-name=" 02. Logo et déclinaisons"><g id="Logo_blanc_noir_gris" data-name="Logo blanc noir gris"><g id="Logo_blanc" data-name="Logo blanc"><path class="cls-1" d="M107.53,265.64V125H298a656,656,0,0,1,33.5-89.69A3.12,3.12,0,0,0,330,31.22a3,3,0,0,0-1.27-.28H58.56c-27.86,0-49.8,20.88-49.8,46.62V547c0,25.74,21.94,46.65,49.8,46.65H328.75a3.57,3.57,0,0,0,3.53-3.58,3.62,3.62,0,0,0-.33-1.45,656.06,656.06,0,0,1-33.5-89H107.53v-234Z"/><path class="cls-1" d="M1166,593.67c-27.86,0-49.8-20.91-49.8-46.63V77.52c0-25.72,21.94-46.62,49.8-46.62,27,0,49,20.9,49,46.62V499.6h172.2c27,0,49.8,20.9,49.8,47.44,0,25.72-22.79,46.63-49.8,46.63Z"/><path class="cls-1" d="M1911,547c0,25.72-22,46.63-49.8,46.63H1591.06c-27.84,0-49.8-20.91-49.8-46.63V77.52c0-25.72,22-46.62,49.8-46.62H1861.2c27.84,0,49.8,20.9,49.8,46.62,0,26.52-22,47.43-49.8,47.43H1640V265.66h172.2c27,0,49,20.88,49,46.62s-22,46.63-49,46.63H1640V499.6H1861.2C1889,499.6,1911,520.5,1911,547Z"/><path class="cls-1" d="M605,15.12c-.57.32.62,0,0,0-101.3,0-220.23,89.8-172.17,284.47,11.9,48.11,34.95,92.72,68.59,128.33,38.35,40.64,98.08,79.09,184.64,73.22,62.75-4.23,121.8-33.83,160.89-84.51,28.51-37.05,49.42-88.47,28.86-152.41-19.11-59.48-73.08-100.43-134-100.68-4.43,0-9,.11-13.77.41-30.88,2-41.37,20.18-44.07,32.78a28.89,28.89,0,0,0,30.76,34.59c1.13-.12,2.24-.18,3.35-.25,39.68-2.17,71.9,32.7,69.46,73.49-2.59,43.49-26.13,69.54-52,85.1-37.71,22.66-83.85,24.53-124.08,7.19-102.29-44-110.15-141.8-110.15-141.8C487.5,132,545.05,58.1,606,14.87"/><path class="cls-2" d="M371.4,267.39A351.69,351.69,0,0,0,416.25,440c89.91,160.39,294.45,216.7,454.9,127l1.63-.91c91.32-51.44,181-152.28,132.91-346.95-11.87-48.1-34.94-92.72-68.56-128.33C898.78,50.15,839,11.67,752.49,17.56c-62.75,4.23-121.8,33.83-160.9,84.49-28.52,37.05-49.41,88.5-28.86,152.42,19.11,59.49,73.09,100.44,134,100.69,4.4,0,9-.11,13.76-.41,30.89-1.95,41.38-20.2,44.07-32.77a28.91,28.91,0,0,0-30.73-34.6c-1.13.12-2.26.2-3.35.26-39.68,2.16-71.9-32.69-69.46-73.48,2.57-43.49,26.13-69.54,52-85.1,37.71-22.66,83.85-24.55,124.07-7.21,102.3,44.05,110.16,141.8,110.16,141.8,13.8,123.06-43.74,197-104.75,240.2-79.66,56.41-187.95,67.47-272.28,19.36C416.19,441,377.62,323,371.48,257.76,371.44,261,371.4,264.18,371.4,267.39Z"/><path class="cls-2" d="M269.51,313.53q0,19.5,1.19,38.65a39.91,39.91,0,0,1-7.8.6l-42.9-.89c-25.58,0-42.57-1.23-53.76-3.49a22.1,22.1,0,0,1-17.63-21.69v-29a22,22,0,0,1,16.17-21.33c11.15-3,28.49-4.74,55.24-4.74l43.49-.2a38.18,38.18,0,0,1,7.39.65Q269.51,292.58,269.51,313.53Z"/></g></g></g></svg>